<svg width="90" height="15" viewBox="0 0 90 15" fill="none" xmlns="http://www.w3.org/2000/svg">
<g clip-path="url(#clip0_3192_836)">
<path d="M19.728 11V9.968H22.044C22.66 9.968 23.2 9.836 23.664 9.572C24.128 9.3 24.488 8.928 24.744 8.456C25.008 7.984 25.14 7.44 25.14 6.824C25.14 6.216 25.008 5.676 24.744 5.204C24.48 4.732 24.116 4.364 23.652 4.1C23.188 3.836 22.652 3.704 22.044 3.704H19.74V2.672H22.068C22.676 2.672 23.236 2.776 23.748 2.984C24.268 3.192 24.716 3.484 25.092 3.86C25.476 4.236 25.772 4.676 25.98 5.18C26.196 5.684 26.304 6.236 26.304 6.836C26.304 7.428 26.196 7.98 25.98 8.492C25.772 8.996 25.48 9.436 25.104 9.812C24.728 10.188 24.28 10.48 23.76 10.688C23.248 10.896 22.692 11 22.092 11H19.728ZM18.984 11V2.672H20.112V11H18.984ZM30.3148 11.12C29.7468 11.12 29.2348 10.992 28.7788 10.736C28.3228 10.472 27.9628 10.116 27.6988 9.668C27.4348 9.22 27.3028 8.712 27.3028 8.144C27.3028 7.584 27.4308 7.08 27.6868 6.632C27.9508 6.184 28.3028 5.832 28.7428 5.576C29.1908 5.312 29.6908 5.18 30.2428 5.18C30.7708 5.18 31.2348 5.3 31.6348 5.54C32.0428 5.78 32.3588 6.112 32.5828 6.536C32.8148 6.96 32.9308 7.44 32.9308 7.976C32.9308 8.056 32.9268 8.144 32.9188 8.24C32.9108 8.328 32.8948 8.432 32.8708 8.552H28.0588V7.652H32.2948L31.8988 8C31.8988 7.616 31.8308 7.292 31.6948 7.028C31.5588 6.756 31.3668 6.548 31.1188 6.404C30.8708 6.252 30.5708 6.176 30.2188 6.176C29.8508 6.176 29.5268 6.256 29.2468 6.416C28.9668 6.576 28.7508 6.8 28.5988 7.088C28.4468 7.376 28.3708 7.716 28.3708 8.108C28.3708 8.508 28.4508 8.86 28.6108 9.164C28.7708 9.46 28.9988 9.692 29.2948 9.86C29.5908 10.02 29.9308 10.1 30.3148 10.1C30.6348 10.1 30.9268 10.044 31.1908 9.932C31.4628 9.82 31.6948 9.652 31.8868 9.428L32.5828 10.136C32.3108 10.456 31.9748 10.7 31.5748 10.868C31.1828 11.036 30.7628 11.12 30.3148 11.12ZM37.1084 11.12C36.6764 11.12 36.2844 11.032 35.9324 10.856C35.5884 10.672 35.3124 10.42 35.1044 10.1C34.8964 9.78 34.7804 9.416 34.7564 9.008V7.292C34.7804 6.876 34.8964 6.512 35.1044 6.2C35.3204 5.88 35.6004 5.632 35.9444 5.456C36.2964 5.272 36.6844 5.18 37.1084 5.18C37.6284 5.18 38.0964 5.312 38.5124 5.576C38.9364 5.84 39.2684 6.196 39.5084 6.644C39.7484 7.092 39.8684 7.596 39.8684 8.156C39.8684 8.716 39.7484 9.22 39.5084 9.668C39.2684 10.116 38.9364 10.472 38.5124 10.736C38.0964 10.992 37.6284 11.12 37.1084 11.12ZM34.1084 13.388V5.3H35.1884V6.8L34.9844 8.18L35.1884 9.572V13.388H34.1084ZM36.9284 10.1C37.2884 10.1 37.6044 10.016 37.8764 9.848C38.1484 9.68 38.3644 9.452 38.5244 9.164C38.6844 8.868 38.7644 8.528 38.7644 8.144C38.7644 7.768 38.6844 7.432 38.5244 7.136C38.3644 6.84 38.1484 6.612 37.8764 6.452C37.6044 6.284 37.2924 6.2 36.9404 6.2C36.5804 6.2 36.2644 6.284 35.9924 6.452C35.7204 6.612 35.5084 6.84 35.3564 7.136C35.2044 7.432 35.1284 7.772 35.1284 8.156C35.1284 8.532 35.2004 8.868 35.3444 9.164C35.4964 9.452 35.7084 9.68 35.9804 9.848C36.2604 10.016 36.5764 10.1 36.9284 10.1ZM41.0928 11V2.432H42.1728V11H41.0928ZM46.3569 11.12C45.7969 11.12 45.2929 10.988 44.8449 10.724C44.3969 10.46 44.0409 10.104 43.7769 9.656C43.5129 9.2 43.3809 8.692 43.3809 8.132C43.3809 7.58 43.5129 7.084 43.7769 6.644C44.0409 6.196 44.3969 5.84 44.8449 5.576C45.2929 5.312 45.7969 5.18 46.3569 5.18C46.9089 5.18 47.4089 5.312 47.8569 5.576C48.3129 5.832 48.6729 6.184 48.9369 6.632C49.2009 7.08 49.3329 7.58 49.3329 8.132C49.3329 8.692 49.2009 9.2 48.9369 9.656C48.6729 10.104 48.3129 10.46 47.8569 10.724C47.4089 10.988 46.9089 11.12 46.3569 11.12ZM46.3569 10.076C46.7169 10.076 47.0369 9.992 47.3169 9.824C47.5969 9.656 47.8169 9.428 47.9769 9.14C48.1369 8.844 48.2169 8.508 48.2169 8.132C48.2169 7.764 48.1329 7.436 47.9649 7.148C47.8049 6.86 47.5849 6.636 47.3049 6.476C47.0329 6.308 46.7169 6.224 46.3569 6.224C45.9969 6.224 45.6769 6.308 45.3969 6.476C45.1169 6.636 44.8969 6.86 44.7369 7.148C44.5769 7.436 44.4969 7.764 44.4969 8.132C44.4969 8.508 44.5769 8.844 44.7369 9.14C44.8969 9.428 45.1169 9.656 45.3969 9.824C45.6769 9.992 45.9969 10.076 46.3569 10.076ZM52.1992 11.048L49.7272 5.3H50.9272L52.7632 9.8H52.3792L54.3112 5.3H55.5112L52.8472 11.048H52.1992ZM50.5672 13.388L52.2472 9.944L52.8472 11.048L51.7672 13.388H50.5672Z" fill="#76829F"/>
<path d="M57.9552 11V9.536H59.9472C60.3152 9.536 60.6032 9.428 60.8112 9.212C61.0192 8.996 61.1232 8.732 61.1232 8.42C61.1232 8.204 61.0752 8.012 60.9792 7.844C60.8832 7.676 60.7472 7.544 60.5712 7.448C60.4032 7.352 60.1952 7.304 59.9472 7.304H57.9552V5.876H59.7912C60.1032 5.876 60.3552 5.8 60.5472 5.648C60.7392 5.488 60.8352 5.248 60.8352 4.928C60.8352 4.616 60.7392 4.384 60.5472 4.232C60.3552 4.072 60.1032 3.992 59.7912 3.992H57.9552V2.528H60.1512C60.6952 2.528 61.1552 2.628 61.5312 2.828C61.9152 3.028 62.2072 3.296 62.4072 3.632C62.6072 3.968 62.7072 4.34 62.7072 4.748C62.7072 5.268 62.5392 5.708 62.2032 6.068C61.8672 6.428 61.3712 6.676 60.7152 6.812L60.7632 6.176C61.4752 6.312 62.0232 6.588 62.4072 7.004C62.7992 7.42 62.9952 7.932 62.9952 8.54C62.9952 9.004 62.8792 9.424 62.6472 9.8C62.4232 10.168 62.0952 10.46 61.6632 10.676C61.2392 10.892 60.7272 11 60.1272 11H57.9552ZM56.5152 11V2.528H58.3752V11H56.5152ZM66.9147 11.132C66.2827 11.132 65.7187 11.004 65.2227 10.748C64.7347 10.484 64.3507 10.12 64.0707 9.656C63.7907 9.192 63.6507 8.668 63.6507 8.084C63.6507 7.5 63.7867 6.98 64.0587 6.524C64.3387 6.06 64.7147 5.696 65.1867 5.432C65.6587 5.168 66.1907 5.036 66.7827 5.036C67.3587 5.036 67.8667 5.16 68.3067 5.408C68.7467 5.656 69.0907 6 69.3387 6.44C69.5947 6.88 69.7227 7.384 69.7227 7.952C69.7227 8.056 69.7147 8.168 69.6987 8.288C69.6907 8.4 69.6707 8.532 69.6387 8.684L64.6107 8.696V7.436L68.8587 7.424L68.0667 7.952C68.0587 7.616 68.0067 7.34 67.9107 7.124C67.8147 6.9 67.6707 6.732 67.4787 6.62C67.2947 6.5 67.0667 6.44 66.7947 6.44C66.5067 6.44 66.2547 6.508 66.0387 6.644C65.8307 6.772 65.6667 6.956 65.5467 7.196C65.4347 7.436 65.3787 7.728 65.3787 8.072C65.3787 8.416 65.4387 8.712 65.5587 8.96C65.6867 9.2 65.8627 9.388 66.0867 9.524C66.3187 9.652 66.5907 9.716 66.9027 9.716C67.1907 9.716 67.4507 9.668 67.6827 9.572C67.9147 9.468 68.1187 9.316 68.2947 9.116L69.3027 10.124C69.0147 10.46 68.6667 10.712 68.2587 10.88C67.8507 11.048 67.4027 11.132 66.9147 11.132ZM70.6089 11V5.168H72.4449V11H70.6089ZM72.4449 7.796L71.6769 7.196C71.8289 6.516 72.0849 5.988 72.4449 5.612C72.8049 5.236 73.3049 5.048 73.9449 5.048C74.2249 5.048 74.4689 5.092 74.6769 5.18C74.8929 5.26 75.0809 5.388 75.2409 5.564L74.1489 6.944C74.0689 6.856 73.9689 6.788 73.8489 6.74C73.7289 6.692 73.5929 6.668 73.4409 6.668C73.1369 6.668 72.8929 6.764 72.7089 6.956C72.5329 7.14 72.4449 7.42 72.4449 7.796ZM75.6949 11V5.168H77.5309V11H75.6949ZM77.5309 7.796L76.7629 7.196C76.9149 6.516 77.1709 5.988 77.5309 5.612C77.8909 5.236 78.3909 5.048 79.0309 5.048C79.3109 5.048 79.5549 5.092 79.7629 5.18C79.9789 5.26 80.1669 5.388 80.3269 5.564L79.2349 6.944C79.1549 6.856 79.0549 6.788 78.9349 6.74C78.8149 6.692 78.6789 6.668 78.5269 6.668C78.2229 6.668 77.9789 6.764 77.7949 6.956C77.6189 7.14 77.5309 7.42 77.5309 7.796ZM82.5691 11.024L80.1691 5.168H82.1491L83.6731 9.812H82.9411L84.5011 5.168H86.4811L83.9851 11.024H82.5691ZM81.0691 13.46L82.8211 9.68L83.9851 11.024L82.9531 13.46H81.0691Z" fill="#930BB1"/>
<path opacity="0.5" d="M5 7.70019C5 4.66263 7.46243 2.2002 10.5 2.2002V2.2002C13.5376 2.2002 16 4.66263 16 7.70019V8.43353C16 11.4711 13.5376 13.9335 10.5 13.9335H5V7.70019Z" fill="#930BB1"/>
<path opacity="0.5" d="M3 6.63379C3 3.59622 5.46243 1.13379 8.5 1.13379V1.13379C11.5376 1.13379 14 3.59622 14 6.63379V7.36712C14 10.4047 11.5376 12.8671 8.5 12.8671H3V6.63379Z" fill="#930BB1"/>
</g>
<defs>
<clipPath id="clip0_3192_836">
<rect width="90" height="15" fill="white"/>
</clipPath>
</defs>
</svg>
